<svg width="32" height="32" viewBox="0 0 32 32" fill="none" xmlns="http://www.w3.org/2000/svg">
<path fill-rule="evenodd" clip-rule="evenodd" d="M21.3333 12C21.3333 13.4145 20.7714 14.771 19.7712 15.7712C18.771 16.7714 17.4144 17.3333 16 17.3333C14.5855 17.3333 13.2289 16.7714 12.2287 15.7712C11.2285 14.771 10.6666 13.4145 10.6666 12C10.6666 10.5855 11.2285 9.22896 12.2287 8.22876C13.2289 7.22857 14.5855 6.66666 16 6.66666C17.4144 6.66666 18.771 7.22857 19.7712 8.22876C20.7714 9.22896 21.3333 10.5855 21.3333 12ZM18.6666 12C18.6666 12.7072 18.3857 13.3855 17.8856 13.8856C17.3855 14.3857 16.7072 14.6667 16 14.6667C15.2927 14.6667 14.6144 14.3857 14.1143 13.8856C13.6142 13.3855 13.3333 12.7072 13.3333 12C13.3333 11.2928 13.6142 10.6145 14.1143 10.1144C14.6144 9.61428 15.2927 9.33333 16 9.33333C16.7072 9.33333 17.3855 9.61428 17.8856 10.1144C18.3857 10.6145 18.6666 11.2928 18.6666 12Z" fill="black"/>
<path fill-rule="evenodd" clip-rule="evenodd" d="M16 1.33333C7.89998 1.33333 1.33331 7.9 1.33331 16C1.33331 24.1 7.89998 30.6667 16 30.6667C24.1 30.6667 30.6666 24.1 30.6666 16C30.6666 7.9 24.1 1.33333 16 1.33333ZM3.99998 16C3.99998 18.7867 4.95065 21.352 6.54398 23.3893C7.66295 21.9199 9.10651 20.729 10.7619 19.9097C12.4173 19.0905 14.2396 18.6651 16.0866 18.6667C17.9098 18.6649 19.7092 19.0794 21.3479 19.8784C22.9866 20.6774 24.4213 21.8399 25.5426 23.2773C26.6979 21.7621 27.4758 19.9936 27.8118 18.1181C28.1479 16.2426 28.0326 14.314 27.4753 12.492C26.9181 10.6699 25.9349 9.00673 24.6073 7.64004C23.2797 6.27336 21.6456 5.24247 19.8405 4.63267C18.0353 4.02287 16.1109 3.85169 14.2265 4.13329C12.342 4.41489 10.5517 5.14118 9.00367 6.25207C7.45564 7.36295 6.19439 8.82649 5.32429 10.5216C4.45418 12.2167 4.00022 14.0946 3.99998 16ZM16 28C13.2452 28.0041 10.5737 27.0565 8.43731 25.3173C9.29722 24.0863 10.4418 23.0812 11.7736 22.3876C13.1054 21.6939 14.585 21.3323 16.0866 21.3333C17.5695 21.3321 19.0313 21.6848 20.3505 22.3619C21.6698 23.039 22.8085 24.0211 23.672 25.2267C21.519 27.0223 18.8034 28.0039 16 28Z" fill="black"/>
</svg>
