<svg width="34" height="34" viewBox="0 0 34 34" fill="none" xmlns="http://www.w3.org/2000/svg">
<path d="M1 17C1 21.2435 2.68571 25.3131 5.68629 28.3137C8.68687 31.3143 12.7565 33 17 33C21.2435 33 25.3131 31.3143 28.3137 28.3137C31.3143 25.3131 33 21.2435 33 17C33 12.7565 31.3143 8.68687 28.3137 5.68629C25.3131 2.68571 21.2435 1 17 1C12.7565 1 8.68687 2.68571 5.68629 5.68629C2.68571 8.68687 1 12.7565 1 17Z" stroke="white" stroke-width="2" stroke-linecap="round" stroke-linejoin="round"/>
<path d="M9 21.8V14.6C9 13.9635 9.25286 13.353 9.70294 12.903C10.153 12.4529 10.7635 12.2 11.4 12.2C12.0365 12.2 12.647 12.4529 13.0971 12.903C13.5471 13.353 13.8 13.9635 13.8 14.6V21.8M9 18.6H13.8M20.2 12.2V21.8H21.8C22.6487 21.8 23.4626 21.4629 24.0627 20.8628C24.6629 20.2626 25 19.4487 25 18.6V15.4C25 14.5513 24.6629 13.7374 24.0627 13.1373C23.4626 12.5372 22.6487 12.2 21.8 12.2H20.2Z" stroke="white" stroke-width="2" stroke-linecap="round" stroke-linejoin="round"/>
</svg>
