<svg width="18" height="18" viewBox="0 0 18 18" fill="none" xmlns="http://www.w3.org/2000/svg">
<path d="M13.2375 4.7625C12.6824 4.20364 12.0222 3.76017 11.2949 3.45767C10.5677 3.15518 9.78769 2.99963 9.00001 3C5.68501 3 3.00751 5.685 3.00751 9C3.00751 12.315 5.68501 15 9.00001 15C11.7975 15 14.13 13.0875 14.7975 10.5H13.2375C12.9286 11.3771 12.355 12.1368 11.596 12.6741C10.837 13.2115 9.92997 13.5 9.00001 13.5C6.51751 13.5 4.50001 11.4825 4.50001 9C4.50001 6.5175 6.51751 4.5 9.00001 4.5C10.245 4.5 11.355 5.0175 12.165 5.835L9.75001 8.25H15V3L13.2375 4.7625Z" fill="black"/>
</svg>
